<svg width="20" height="20" viewBox="0 0 20 20" fill="none" xmlns="http://www.w3.org/2000/svg">
<g clip-path="url(#clip0)">
<path d="M10.0938 8.4375C9.84375 8.4375 9.625 8.21875 9.625 7.96875V5.46875C9.625 5.21875 9.84375 5 10.0938 5C10.3438 5 10.5625 5.21875 10.5625 5.46875V7.96875C10.5625 8.21875 10.375 8.4375 10.0938 8.4375Z" fill="#A1ADC5"/>
<path d="M4.75 9.625C4.625 9.625 4.5 9.59375 4.40625 9.5L2.625 7.71875C2.4375 7.53125 2.4375 7.25 2.625 7.0625C2.8125 6.875 3.125 6.875 3.3125 7.0625L5.09375 8.84375C5.28125 9.03125 5.28125 9.3125 5.09375 9.5C4.96875 9.59375 4.84375 9.625 4.75 9.625Z" fill="#A1ADC5"/>
<path d="M15.4687 9.625C15.3437 9.625 15.2188 9.59375 15.125 9.5C14.9375 9.3125 14.9375 9.03125 15.125 8.84375L16.9063 7.0625C17.0938 6.875 17.375 6.875 17.5625 7.0625C17.75 7.25 17.75 7.53125 17.5625 7.71875L15.7813 9.5C15.7188 9.59375 15.5938 9.625 15.4687 9.625Z" fill="#A1ADC5"/>
<path d="M10.0937 13.8125C8.8125 13.8125 7.75 12.75 7.75 11.4687C7.75 10.1875 8.8125 9.125 10.0937 9.125C11.375 9.125 12.4375 10.1875 12.4375 11.4687C12.4375 12.75 11.4062 13.8125 10.0937 13.8125ZM10.0937 10.0625C9.3125 10.0625 8.6875 10.6875 8.6875 11.4687C8.6875 12.25 9.3125 12.875 10.0937 12.875C10.875 12.875 11.5 12.25 11.5 11.4687C11.5 10.6875 10.875 10.0625 10.0937 10.0625Z" fill="#A1ADC5"/>
<path d="M10.0938 15.25C5.875 15.25 2.59375 13.5937 2.59375 11.5C2.59375 9.40625 5.875 7.75 10.0938 7.75C14.3125 7.75 17.5938 9.40625 17.5938 11.5C17.5938 13.5937 14.3125 15.25 10.0938 15.25ZM10.0938 8.6875C7 8.6875 3.53125 9.84375 3.53125 11.5C3.53125 13.1562 7 14.3125 10.0938 14.3125C13.1875 14.3125 16.6562 13.1562 16.6562 11.5C16.6562 9.84375 13.2188 8.6875 10.0938 8.6875Z" fill="#A1ADC5"/>
</g>
<defs>
<clipPath id="clip0">
<rect width="15.2188" height="10.25" fill="white" transform="translate(2.5 5)"/>
</clipPath>
</defs>
</svg>
